<svg xmlns="http://www.w3.org/2000/svg" xmlns:xlink="http://www.w3.org/1999/xlink" width="44" height="46" fill="none" xmlns:v="https://vecta.io/nano"><path d="M0 6.173A6.173 6.173 0 0 1 6.18.003h31.53a6.173 6.173 0 0 1 6.18 6.17v29.685a6.181 6.181 0 0 1-6.18 6.181H6.18A6.181 6.181 0 0 1 0 35.86" fill="url(#A)"/><path d="M0 9.088h43.89V6.174A6.175 6.175 0 0 0 37.712 0H6.18A6.175 6.175 0 0 0 0 6.174" fill="url(#B)"/><use xlink:href="#D" fill="url(#C)"/><use xlink:href="#D" x="6.219" fill="url(#C)"/><use xlink:href="#D" x="12.43" fill="url(#C)"/><path fill-rule="evenodd" d="M15.771 23.233a5.74 5.74 0 0 1 5.729-5.73 5.736 5.736 0 0 1 5.729 5.73 5.733 5.733 0 0 1-5.729 5.729 5.733 5.733 0 0 1-5.729-5.729zm13.41 11.665a4.77 4.77 0 0 0-4.764-4.763h-5.834a4.77 4.77 0 0 0-4.764 4.763v9.646c0 .526.427.953.953.953h13.456a.953.953 0 0 0 .953-.953v-9.646zm1.503-2.282h2.552A4.769 4.769 0 0 1 38 37.38v5.258a2.861 2.861 0 0 1-2.858 2.858h-4.22c.106-.298.165-.618.165-.952v-9.646c0-.8-.143-1.57-.403-2.282zm-18.368 0a6.639 6.639 0 0 0-.402 2.282v9.646c0 .334.058.654.164.953h-4.22A2.861 2.861 0 0 1 5 42.638V37.38a4.77 4.77 0 0 1 4.764-4.764h2.552zm-.876-9.773a4.29 4.29 0 0 0-4.284 4.285 4.29 4.29 0 0 0 4.284 4.284c.6 0 1.17-.124 1.688-.347a4.312 4.312 0 0 0 2.093-1.925c.321-.6.504-1.285.504-2.012a4.29 4.29 0 0 0-4.285-4.285zm15.836 4.285a4.29 4.29 0 0 1 4.284-4.285 4.29 4.29 0 0 1 4.285 4.285 4.29 4.29 0 0 1-4.285 4.284c-.6 0-1.17-.124-1.688-.347a4.31 4.31 0 0 1-2.093-1.925 4.256 4.256 0 0 1-.503-2.012z" fill="#678cc8"/><defs><linearGradient id="A" x1="21.945" y1="42.039" x2="21.945" y2=".002" gradientUnits="userSpaceOnUse"><stop offset=".017" stop-color="#ccc"/><stop offset="1" stop-color="#f2f2f2"/></linearGradient><linearGradient id="B" x1="21.945" y1="9.088" x2="21.945" y2="0" gradientUnits="userSpaceOnUse"><stop stop-color="#df2cb2"/><stop offset="1" stop-color="#fc3bb3"/></linearGradient><linearGradient id="C" x1="6.731" y1="6.4" x2="6.731" y2="2.688" gradientUnits="userSpaceOnUse"><stop offset=".017" stop-color="#ccc"/><stop offset="1" stop-color="#f2f2f2"/></linearGradient><path id="D" d="M8.587 4.544c0 1.03-.832 1.856-1.856 1.856a1.857 1.857 0 1 1 1.856-1.856Z"/></defs></svg>