<svg xmlns="http://www.w3.org/2000/svg" xmlns:xlink="http://www.w3.org/1999/xlink" width="44" height="45" fill="none" xmlns:v="https://vecta.io/nano"><path d="M0 6.173A6.173 6.173 0 0 1 6.18.003h31.53a6.173 6.173 0 0 1 6.18 6.17v29.685a6.181 6.181 0 0 1-6.18 6.181H6.18A6.181 6.181 0 0 1 0 35.86" fill="url(#A)"/><path d="M0 9.088h43.89V6.174A6.175 6.175 0 0 0 37.712 0H6.18A6.175 6.175 0 0 0 0 6.174" fill="url(#B)"/><use xlink:href="#D" fill="url(#C)"/><use xlink:href="#D" x="6.211" fill="url(#C)"/><use xlink:href="#D" x="12.43" fill="url(#C)"/><path d="M21.986 29.05c1.93 0 3.602-.692 4.968-2.058s2.058-3.037 2.058-4.967-.693-3.601-2.059-4.967S23.916 15 21.986 15s-3.601.692-4.967 2.058-2.058 3.037-2.058 4.967.692 3.602 2.058 4.967 3.038 2.058 4.967 2.058zm12.29 8.378a17.82 17.82 0 0 0-.236-1.842 14.48 14.48 0 0 0-.454-1.853 9.15 9.15 0 0 0-.761-1.729 6.522 6.522 0 0 0-1.15-1.497 5.066 5.066 0 0 0-1.65-1.037 5.703 5.703 0 0 0-2.106-.38c-.297 0-.585.122-1.142.484l-1.189.766c-.382.244-.9.472-1.539.678a6.113 6.113 0 0 1-1.882.305 6.118 6.118 0 0 1-1.883-.305c-.639-.206-1.156-.434-1.538-.677l-1.19-.768c-.556-.362-.844-.484-1.142-.484-.758 0-1.467.129-2.106.382a5.062 5.062 0 0 0-1.65 1.037c-.434.414-.82.918-1.149 1.496a9.172 9.172 0 0 0-.761 1.729c-.182.57-.335 1.193-.453 1.853a17.312 17.312 0 0 0-.237 1.843A25.013 25.013 0 0 0 10 39.152c0 1.522.484 2.755 1.438 3.664.943.897 2.19 1.352 3.707 1.352H29.19c1.516 0 2.763-.455 3.706-1.352.955-.909 1.439-2.141 1.439-3.665l-.059-1.723z" fill="#678cc8"/><defs><linearGradient id="A" x1="21.945" y1="42.039" x2="21.945" y2=".002" gradientUnits="userSpaceOnUse"><stop offset=".017" stop-color="#ccc"/><stop offset="1" stop-color="#f2f2f2"/></linearGradient><linearGradient id="B" x1="21.945" y1="9.088" x2="21.945" y2="0" gradientUnits="userSpaceOnUse"><stop stop-color="#df2cb2"/><stop offset="1" stop-color="#fc3bb3"/></linearGradient><linearGradient id="C" x1="6.731" y1="6.4" x2="6.731" y2="2.688" gradientUnits="userSpaceOnUse"><stop offset=".017" stop-color="#ccc"/><stop offset="1" stop-color="#f2f2f2"/></linearGradient><path id="D" d="M8.587 4.544c0 1.03-.832 1.856-1.856 1.856a1.857 1.857 0 1 1 1.856-1.856Z"/></defs></svg>