<svg xmlns="http://www.w3.org/2000/svg" width="105" height="48" fill="none" xmlns:v="https://vecta.io/nano"><g stroke-width="1.5" stroke-linecap="round"><path d="M21.9338 35.3066C17.2279 32.5896 15.6156 26.5723 18.3325 21.8664C21.0494 17.1606 27.0668 15.5482 31.7727 18.2651" stroke="url(#B)"/><path d="M19.4348 39.5835C12.3828 35.512 9.9666 26.4946 14.0381 19.4426C18.1096 12.3906 27.1269 9.97442 34.179 14.0459" stroke="url(#C)"/></g><path d="M16.7073 43.0613C7.47998 37.7339 4.31846 25.9349 9.64587 16.7076C14.9733 7.48024 26.7722 4.31872 35.9996 9.64612" stroke="url(#D)" stroke-linecap="round"/><g fill="#fff"><circle cx="23.998" cy="12" r="1.5" stroke="#f7579f"/><circle cx="13.998" cy="34" r="1.5" stroke="#c631bc"/><circle cx="8.998" cy="18" r="1.65" stroke="#ed3795" stroke-width=".7"/></g><path d="M36.239 34.86V38h-12.54v-2.48l7.06-8.38h-6.88V24h12.06v2.48l-7.06 8.38h7.36zm8.677 3.42c-1.48 0-2.813-.313-4-.94-1.173-.627-2.1-1.493-2.78-2.6-.667-1.107-1-2.353-1-3.74s.333-2.633 1-3.74c.68-1.107 1.607-1.973 2.78-2.6 1.187-.627 2.52-.94 4-.94s2.807.313 3.98.94c1.187.627 2.113 1.493 2.78 2.6.68 1.107 1.02 2.353 1.02 3.74s-.34 2.633-1.02 3.74c-.667 1.107-1.593 1.973-2.78 2.6-1.173.627-2.5.94-3.98.94zm0-3.28a3.75 3.75 0 0 0 1.92-.5c.573-.333 1.027-.8 1.36-1.4.333-.613.5-1.313.5-2.1s-.167-1.48-.5-2.08a3.58 3.58 0 0 0-1.36-1.42 3.75 3.75 0 0 0-1.92-.5 3.75 3.75 0 0 0-1.92.5c-.573.333-1.027.807-1.36 1.42-.333.6-.5 1.293-.5 2.08s.167 1.487.5 2.1c.333.6.787 1.067 1.36 1.4a3.75 3.75 0 0 0 1.92.5zm22.494 3l-.04-7.42-3.6 6.04h-1.76l-3.58-5.84V38h-3.66V24h3.26l4.92 8.08 4.8-8.08h3.26l.04 14h-3.64zm12.562-3.72h-2.16V38h-3.96V24h6.4c1.267 0 2.367.213 3.3.64.933.413 1.653 1.013 2.16 1.8.507.773.76 1.687.76 2.74 0 1.013-.24 1.9-.72 2.66-.467.747-1.14 1.333-2.02 1.76l3.02 4.4h-4.24l-2.54-3.72zm2.5-5.1c0-.653-.207-1.16-.62-1.52s-1.027-.54-1.84-.54h-2.2v4.1h2.2c.813 0 1.427-.173 1.84-.52.413-.36.62-.867.62-1.52zm13.245 9.1c-1.48 0-2.813-.313-4-.94-1.173-.627-2.1-1.493-2.78-2.6-.667-1.107-1-2.353-1-3.74s.333-2.633 1-3.74c.68-1.107 1.607-1.973 2.78-2.6 1.187-.627 2.52-.94 4-.94s2.807.313 3.98.94c1.187.627 2.113 1.493 2.78 2.6.68 1.107 1.02 2.353 1.02 3.74s-.34 2.633-1.02 3.74c-.667 1.107-1.593 1.973-2.78 2.6-1.173.627-2.5.94-3.98.94zm0-3.28a3.75 3.75 0 0 0 1.92-.5c.573-.333 1.027-.8 1.36-1.4.333-.613.5-1.313.5-2.1s-.167-1.48-.5-2.08c-.333-.613-.787-1.087-1.36-1.42a3.75 3.75 0 0 0-1.92-.5 3.75 3.75 0 0 0-1.92.5 3.58 3.58 0 0 0-1.36 1.42c-.333.6-.5 1.293-.5 2.08s.167 1.487.5 2.1c.333.6.787 1.067 1.36 1.4a3.75 3.75 0 0 0 1.92.5z" fill="url(#E)"/><path fill="#491c87" d="M40.999 27h9v8h-9z"/><g filter="url(#A)"><path d="M48.517 30.083c.164-.563.137-1.177-.076-1.718s-.595-.966-1.069-1.191-1.004-.232-1.482-.019-.868.629-1.091 1.164a1.39 1.39 0 0 0-.663-.228c-.233-.017-.467.028-.683.131s-.409.262-.564.465-.269.444-.333.704a1.75 1.75 0 0 0-.854-.055c-.285.053-.556.175-.797.36s-.444.427-.597.71-.253.602-.291.933a2.71 2.71 0 0 0 .067.989c.083.321.224.617.414.869s.424.454.686.592.547.21.836.21h6.285c.431 0 .846-.191 1.16-.533a2.11 2.11 0 0 0 .531-1.31c.027-.499-.111-.992-.386-1.377s-.666-.635-1.093-.697z" fill="#fff"/></g><path d="M27.947 42.1V47h-.7v-2.184h-2.814V47h-.7v-4.9h.7v2.107h2.814V42.1h.7zm4.204 4.956c-.495 0-.94-.107-1.337-.322s-.709-.52-.938-.903-.336-.81-.336-1.281.112-.898.336-1.281.541-.681.938-.896.842-.329 1.337-.329.933.11 1.33.329.707.513.931.896.336.805.336 1.281-.112.905-.336 1.288a2.42 2.42 0 0 1-.931.896c-.397.215-.84.322-1.33.322zm0-.623c.359 0 .681-.082.966-.245a1.77 1.77 0 0 0 .679-.672c.168-.289.252-.611.252-.966a1.85 1.85 0 0 0-.252-.959 1.76 1.76 0 0 0-.679-.679c-.285-.163-.607-.245-.966-.245s-.686.082-.98.245a1.81 1.81 0 0 0-.686.679c-.163.285-.245.604-.245.959a1.93 1.93 0 0 0 .245.966c.168.285.397.509.686.672s.621.245.98.245zm5.62.623a3.45 3.45 0 0 1-1.071-.168c-.341-.117-.609-.266-.805-.448l.259-.546c.187.168.425.306.714.413a2.72 2.72 0 0 0 .903.154c.406 0 .709-.068.91-.203s.301-.324.301-.553c0-.168-.056-.303-.168-.406a1.04 1.04 0 0 0-.406-.245c-.159-.056-.385-.119-.679-.189-.369-.089-.667-.177-.896-.266s-.418-.224-.581-.406-.238-.436-.238-.749c0-.261.068-.497.203-.707s.35-.378.63-.504.628-.189 1.043-.189a3.3 3.3 0 0 1 .854.112c.28.075.52.182.721.322l-.231.56c-.205-.131-.425-.229-.658-.294a2.38 2.38 0 0 0-.686-.105c-.397 0-.695.072-.896.217s-.294.331-.294.56c0 .168.056.306.168.413s.25.184.413.245.394.117.679.182a6.84 6.84 0 0 1 .889.266c.224.089.415.224.574.406s.245.427.245.735a1.27 1.27 0 0 1-.21.707c-.14.21-.352.378-.637.504s-.635.182-1.05.182zm4.349-4.347h-1.68V42.1h4.053v.609h-1.68V47h-.693v-4.291zm3.66-.609h.7V47h-.7v-4.9zm6.906 0V47h-.574l-2.94-3.654V47h-.7v-4.9h.574l2.94 3.654V42.1h.7zm5.387 2.422h.672v1.911c-.243.201-.525.355-.847.462s-.658.161-1.008.161c-.495 0-.94-.107-1.337-.322s-.709-.518-.938-.896-.336-.812-.336-1.288.112-.905.336-1.288.541-.681.938-.896.852-.322 1.351-.322a2.77 2.77 0 0 1 1.064.196 2.14 2.14 0 0 1 .819.56l-.434.434a1.97 1.97 0 0 0-1.421-.567c-.373 0-.709.082-1.008.245s-.525.383-.693.672-.252.607-.252.966.084.677.252.966a1.81 1.81 0 0 0 .693.672 2.05 2.05 0 0 0 1.001.245c.439 0 .821-.105 1.148-.315v-1.596zm7.133 2.534c-.49 0-.933-.107-1.33-.322s-.7-.518-.924-.896-.336-.812-.336-1.288.112-.903.336-1.281.534-.681.931-.896.84-.329 1.33-.329c.383 0 .733.065 1.05.196s.588.315.812.567l-.455.441c-.369-.387-.828-.581-1.379-.581-.364 0-.693.082-.987.245s-.525.39-.693.679a1.89 1.89 0 0 0-.245.959 1.93 1.93 0 0 0 .245.966 1.81 1.81 0 0 0 .693.672c.294.163.623.245.987.245a1.83 1.83 0 0 0 1.379-.588l.455.441a2.17 2.17 0 0 1-.819.574c-.317.131-.667.196-1.05.196zm5.502 0c-.495 0-.94-.107-1.337-.322s-.709-.52-.938-.903-.336-.81-.336-1.281.112-.898.336-1.281.541-.681.938-.896.842-.329 1.337-.329.933.11 1.33.329.707.513.931.896.336.805.336 1.281-.112.905-.336 1.288a2.42 2.42 0 0 1-.931.896c-.397.215-.84.322-1.33.322zm0-.623c.359 0 .681-.082.966-.245a1.77 1.77 0 0 0 .679-.672c.168-.289.252-.611.252-.966a1.85 1.85 0 0 0-.252-.959c-.163-.289-.39-.516-.679-.679s-.607-.245-.966-.245-.686.082-.98.245a1.81 1.81 0 0 0-.686.679c-.163.285-.245.604-.245.959a1.93 1.93 0 0 0 .245.966c.168.285.397.509.686.672s.621.245.98.245zm8.735.567l-.007-3.57-1.771 2.975h-.322l-1.771-2.954V47H74.9v-4.9h.574l2.044 3.444 2.016-3.444h.574l.007 4.9h-.672zm4.579-4.9c.635 0 1.134.152 1.498.455s.546.721.546 1.253-.182.95-.546 1.253-.863.455-1.498.455h-1.211V47h-.7v-4.9h1.911zm-.021 2.807c.443 0 .782-.093 1.015-.28s.35-.464.35-.819-.117-.625-.35-.812-.572-.287-1.015-.287h-1.19v2.198h1.19zm6.494.868h-2.604L87.352 47h-.721l2.219-4.9h.693l2.226 4.9h-.735l-.539-1.225zm-.245-.56l-1.057-2.401-1.057 2.401h2.114zm6.989-3.115V47h-.574l-2.94-3.654V47h-.7v-4.9h.574l2.94 3.654V42.1h.7zm3.868 3.206V47h-.693v-1.708L98.468 42.1h.749l1.569 2.583 1.575-2.583h.693l-1.946 3.206z" fill="#442c65"/><defs><filter id="A" x="37.999" y="24" width="16" height="13" filterUnits="userSpaceOnUse" color-interpolation-filters="sRGB"><feFlood flood-opacity="0" result="A"/><feColorMatrix in="SourceAlpha" values="0 0 0 0 0 0 0 0 0 0 0 0 0 0 0 0 0 0 127 0" result="B"/><feOffset dx="1"/><feGaussianBlur stdDeviation="1.5"/><feComposite in2="B" operator="out"/><feColorMatrix values="0 0 0 0 0.266667 0 0 0 0 0.172549 0 0 0 0 0.396078 0 0 0 0.42 0"/><feBlend in2="A"/><feBlend in="SourceGraphic"/></filter><linearGradient id="B" x1="27.512" y1="15.805" x2="17.673" y2="32.847" gradientUnits="userSpaceOnUse"><stop stop-color="#fb67a3"/><stop offset=".397" stop-color="#e72690"/><stop offset="1" stop-color="#c630bb"/></linearGradient><linearGradient id="C" x1="27.795" y1="10.36" x2="13.05" y2="35.898" gradientUnits="userSpaceOnUse"><stop stop-color="#fb67a3"/><stop offset=".397" stop-color="#e72690"/><stop offset="1" stop-color="#c630bb"/></linearGradient><linearGradient id="D" x1="27.646" y1="4.823" x2="8.354" y2="38.238" gradientUnits="userSpaceOnUse"><stop stop-color="#fb67a3"/><stop offset=".397" stop-color="#e72690"/><stop offset="1" stop-color="#c630bb"/></linearGradient><linearGradient id="E" x1="63.999" y1="24" x2="63.999" y2="38" gradientUnits="userSpaceOnUse"><stop stop-color="#4e1e91"/><stop offset="1" stop-color="#42197b"/></linearGradient></defs></svg>