<svg xmlns="http://www.w3.org/2000/svg" xmlns:xlink="http://www.w3.org/1999/xlink" width="44" height="47" fill="none" xmlns:v="https://vecta.io/nano"><path d="M0 6.173A6.173 6.173 0 0 1 6.18.003h31.53a6.173 6.173 0 0 1 6.18 6.17v29.685a6.181 6.181 0 0 1-6.18 6.181H6.18A6.181 6.181 0 0 1 0 35.86" fill="url(#A)"/><rect x="5" y="18" width="34" height="29" rx="3" fill="#678cc8"/><path stroke="#fff" stroke-width="1.5" stroke-linecap="round" d="M11.75 23.25h20.5m-20.5 6h20.5m-20.5 6h20.5m-20.5 6h20.5"/><path d="M0 9.088h43.89V6.174A6.175 6.175 0 0 0 37.712 0H6.18A6.175 6.175 0 0 0 0 6.174" fill="url(#B)"/><use xlink:href="#D" fill="url(#C)"/><use xlink:href="#D" x="6.219" fill="url(#C)"/><use xlink:href="#D" x="12.43" fill="url(#C)"/><defs><linearGradient id="A" x1="21.945" y1="42.039" x2="21.945" y2=".002" gradientUnits="userSpaceOnUse"><stop offset=".017" stop-color="#ccc"/><stop offset="1" stop-color="#f2f2f2"/></linearGradient><linearGradient id="B" x1="21.945" y1="9.088" x2="21.945" y2="0" gradientUnits="userSpaceOnUse"><stop stop-color="#df2cb2"/><stop offset="1" stop-color="#fc3bb3"/></linearGradient><linearGradient id="C" x1="6.731" y1="6.4" x2="6.731" y2="2.688" gradientUnits="userSpaceOnUse"><stop offset=".017" stop-color="#ccc"/><stop offset="1" stop-color="#f2f2f2"/></linearGradient><path id="D" d="M8.587 4.544c0 1.03-.832 1.856-1.856 1.856a1.857 1.857 0 1 1 1.856-1.856Z"/></defs></svg>