<svg xmlns="http://www.w3.org/2000/svg" xmlns:xlink="http://www.w3.org/1999/xlink" width="2209" height="3223" fill="none" xmlns:v="https://vecta.io/nano"><style><![CDATA[.B{fill-opacity:.08}.C{color-interpolation-filters:sRGB}.D{flood-opacity:0}]]></style><g filter="url(#H)" class="B"><path d="M87.557 408.213c-7.094-116.836 139.826-157.327 203.475-161.191s55.189 114.326 62.284 231.162-131.851 339.817-195.5 343.682-63.164-296.817-70.259-413.653z" fill="url(#A)"/></g><g filter="url(#I)" class="B"><path d="M1683.69 169.116c-3.26-53.729 144.69-77.23 208.34-81.095s51.35 50.998 54.61 104.726-142.7 161.252-206.34 165.117c-63.65 3.865-53.34-135.02-56.61-188.748z" fill="url(#B)"/></g><g filter="url(#J)" class="B"><path d="M1911.76 809.498c-3.73-61.331 113.56-85.025 164.15-88.097s41.95 59.226 45.67 120.557c3.73 61.331-110.21 180.872-160.8 183.942s-45.3-155.071-49.02-216.402z" fill="url(#C)"/></g><g filter="url(#K)" class="B"><path d="M96.757 1479.5c-3.724-61.33 113.567-85.03 164.157-88.1s41.944 59.23 45.668 120.56-110.216 180.87-160.805 183.94-45.296-155.07-49.02-216.4z" fill="url(#D)"/></g><g filter="url(#L)" class="B"><path d="M1852.76 2000.5c-3.73-61.33 113.56-85.03 164.15-88.1s41.95 59.23 45.67 120.56c3.73 61.33-110.21 180.87-160.8 183.94s-45.3-155.07-49.02-216.4z" fill="url(#E)"/></g><g filter="url(#M)" class="B"><path d="M1754.76 2919.5c-3.73-61.33 113.56-85.03 164.15-88.1s41.95 59.23 45.67 120.56c3.73 61.33-110.21 180.87-160.8 183.94s-45.3-155.07-49.02-216.4z" fill="url(#F)"/></g><g filter="url(#N)" class="B"><path d="M110.315 2475.39c-4.584-75.49 139.786-104.65 202.054-108.43s51.628 72.9 56.212 148.39-135.661 222.62-197.93 226.4-55.752-190.87-60.336-266.36z" fill="url(#G)"/></g><defs><radialGradient id="A" cx="0" cy="0" r="1" gradientTransform="matrix(313.0459 -84.66148 94.24024 348.4645 145.876 529.629)" xlink:href="#O"><stop offset=".057" stop-color="#ee0057"/><stop offset=".397" stop-color="#fa4b8b"/><stop offset="1" stop-color="#ffd9e7"/></radialGradient><radialGradient id="B" cx="0" cy="0" r="1" gradientTransform="matrix(315.19103 -49.33032 26.0919 166.71154 1737.93 223.285)" xlink:href="#O"><stop offset=".057" stop-color="#ee0057"/><stop offset=".397" stop-color="#fa4b8b"/><stop offset="1" stop-color="#ffd9e7"/></radialGradient><radialGradient id="C" cx="0" cy="0" r="1" gradientTransform="rotate(-11.235 5412.884 -9507.477) scale(254.771 191.711)" xlink:href="#O"><stop offset=".057" stop-color="#ee0057"/><stop offset=".397" stop-color="#fa4b8b"/><stop offset="1" stop-color="#ffd9e7"/></radialGradient><radialGradient id="D" cx="0" cy="0" r="1" gradientTransform="rotate(-11.235 7911.322 54.071) scale(254.771 191.711)" xlink:href="#O"><stop offset=".057" stop-color="#ee0057"/><stop offset=".397" stop-color="#fa4b8b"/><stop offset="1" stop-color="#ffd9e7"/></radialGradient><radialGradient id="E" cx="0" cy="0" r="1" gradientTransform="rotate(-11.235 11437.824 -8612.051) scale(254.771 191.711)" xlink:href="#O"><stop offset=".057" stop-color="#ee0057"/><stop offset=".397" stop-color="#fa4b8b"/><stop offset="1" stop-color="#ffd9e7"/></radialGradient><radialGradient id="F" cx="0" cy="0" r="1" gradientTransform="rotate(-11.235 16060.559 -7654.368) scale(254.771 191.711)" xlink:href="#O"><stop offset=".057" stop-color="#ee0057"/><stop offset=".397" stop-color="#fa4b8b"/><stop offset="1" stop-color="#ffd9e7"/></radialGradient><radialGradient id="G" cx="0" cy="0" r="1" gradientTransform="rotate(-11.235 13059.684 438.355) scale(313.587 235.97)" xlink:href="#O"><stop offset=".057" stop-color="#ee0057"/><stop offset=".397" stop-color="#fa4b8b"/><stop offset="1" stop-color="#ffd9e7"/></radialGradient><filter id="H" x=".309" y="159.929" width="440.27" height="748.974" filterUnits="userSpaceOnUse" class="C"><feFlood class="D"/><feBlend in="SourceGraphic"/><feGaussianBlur stdDeviation="43.5"/></filter><filter id="I" x="1596.64" y=".828" width="437.053" height="444.115" filterUnits="userSpaceOnUse" class="C"><feFlood class="D"/><feBlend in="SourceGraphic"/><feGaussianBlur stdDeviation="43.5"/></filter><filter id="J" x="1824.67" y="634.292" width="384.002" height="478.653" filterUnits="userSpaceOnUse" class="C"><feFlood class="D"/><feBlend in="SourceGraphic"/><feGaussianBlur stdDeviation="43.5"/></filter><filter id="K" x="9.67" y="1304.29" width="384.002" height="478.653" filterUnits="userSpaceOnUse" class="C"><feFlood class="D"/><feBlend in="SourceGraphic"/><feGaussianBlur stdDeviation="43.5"/></filter><filter id="L" x="1765.67" y="1825.29" width="384.002" height="478.653" filterUnits="userSpaceOnUse" class="C"><feFlood class="D"/><feBlend in="SourceGraphic"/><feGaussianBlur stdDeviation="43.5"/></filter><filter id="M" x="1667.67" y="2744.29" width="384.002" height="478.653" filterUnits="userSpaceOnUse" class="C"><feFlood class="D"/><feBlend in="SourceGraphic"/><feGaussianBlur stdDeviation="43.5"/></filter><filter id="N" x="23.209" y="2279.82" width="432.482" height="548.986" filterUnits="userSpaceOnUse" class="C"><feFlood class="D"/><feBlend in="SourceGraphic"/><feGaussianBlur stdDeviation="43.5"/></filter><linearGradient id="O" gradientUnits="userSpaceOnUse"/></defs></svg>