<svg xmlns="http://www.w3.org/2000/svg" xmlns:xlink="http://www.w3.org/1999/xlink" width="45" height="45" fill="none" xmlns:v="https://vecta.io/nano"><path d="M31.51 44.445H13.483c-2 0-3.543-1.75-3.293-3.734L12.56 21.8a3.32 3.32 0 0 1 3.295-2.906h13.282a3.319 3.319 0 0 1 3.294 2.906l2.371 18.91a3.319 3.319 0 0 1-3.293 3.735Z" fill="#678cc8"/><path d="M43.419 6.44v28.295a5.893 5.893 0 0 1-5.893 5.893h-2.731L32.432 21.8a3.318 3.318 0 0 0-3.292-2.909H15.861a3.322 3.322 0 0 0-3.296 2.91l-2.363 18.826H7.471a5.896 5.896 0 0 1-5.893-5.893V6.44A5.887 5.887 0 0 1 7.471.557h30.055A5.884 5.884 0 0 1 43.42 6.44Z" fill="url(#A)"/><path d="M43.415 9.217V6.44a5.886 5.886 0 0 0-5.89-5.885H7.468a5.886 5.886 0 0 0-5.89 5.885v2.777h41.837Z" fill="url(#B)"/><use xlink:href="#E" fill="url(#C)"/><use xlink:href="#E" x="5.922" fill="url(#C)"/><use xlink:href="#E" x="11.852" fill="url(#C)"/><path d="M26.619 23.65a.467.467 0 0 1-.467-.467v-5.837a3.653 3.653 0 0 0-3.656-3.655 3.66 3.66 0 0 0-3.656 3.655v5.837a.467.467 0 1 1-.934 0v-5.837a4.6 4.6 0 0 1 4.59-4.59c2.536 0 4.59 2.05 4.59 4.59v5.837a.467.467 0 0 1-.467.467z" fill="url(#D)"/><defs><linearGradient id="A" x1="22.498" y1="40.628" x2="22.498" y2=".557" gradientUnits="userSpaceOnUse"><stop offset=".017" stop-color="#ccc"/><stop offset="1" stop-color="#f2f2f2"/></linearGradient><linearGradient id="B" x1="22.497" y1="9.217" x2="22.497" y2=".555" gradientUnits="userSpaceOnUse"><stop stop-color="#d828b1"/><stop offset="1" stop-color="#fe3cb2"/></linearGradient><linearGradient id="C" x1="7.996" y1="6.655" x2="7.996" y2="3.117" gradientUnits="userSpaceOnUse"><stop offset=".017" stop-color="#ccc"/><stop offset="1" stop-color="#f2f2f2"/></linearGradient><linearGradient id="D" x1="22.496" y1="23.65" x2="22.496" y2="12.757" gradientUnits="userSpaceOnUse"><stop stop-color="#41262f"/><stop offset="1" stop-color="#543843"/></linearGradient><path id="E" d="M9.765 4.886a1.77 1.77 0 0 1-1.77 1.77 1.77 1.77 0 1 1 1.77-1.77z"/></defs></svg>